<svg width="12" height="13" viewBox="0 0 12 13" fill="none" xmlns="http://www.w3.org/2000/svg">
<path d="M2.00001 11.4087C2.3013 11.5 2.70825 11.5 3.4 11.5H8.6C9.29175 11.5 9.6987 11.5 9.99999 11.4087M2.00001 11.4087C1.93541 11.3891 1.87567 11.3654 1.81901 11.3365C1.53677 11.1927 1.3073 10.9632 1.16349 10.681C1 10.3601 1 9.94008 1 9.1V3.9C1 3.05992 1 2.63988 1.16349 2.31901C1.3073 2.03677 1.53677 1.8073 1.81901 1.66349C2.13988 1.5 2.55992 1.5 3.4 1.5H8.6C9.44008 1.5 9.86012 1.5 10.181 1.66349C10.4632 1.8073 10.6927 2.03677 10.8365 2.31901C11 2.63988 11 3.05992 11 3.9V9.1C11 9.94008 11 10.3601 10.8365 10.681C10.6927 10.9632 10.4632 11.1927 10.181 11.3365C10.1243 11.3654 10.0646 11.3891 9.99999 11.4087M2.00001 11.4087C2.00018 11.0041 2.0026 10.7899 2.03843 10.6098C2.19624 9.81644 2.81644 9.19624 3.60982 9.03843C3.80302 9 4.03534 9 4.5 9H7.5C7.96466 9 8.19698 9 8.39018 9.03843C9.18356 9.19624 9.80376 9.81644 9.96157 10.6098C9.9974 10.7899 9.99982 11.0041 9.99999 11.4087M8 5.25C8 6.35457 7.10457 7.25 6 7.25C4.89543 7.25 4 6.35457 4 5.25C4 4.14543 4.89543 3.25 6 3.25C7.10457 3.25 8 4.14543 8 5.25Z" stroke="#674186" stroke-width="1.2" stroke-linecap="round" stroke-linejoin="round"/>
</svg>
